HIERARCHY
ROOT Hips
{
	OFFSET 1.324476 86.935013 4.250773
	CHANNELS 6 Xposition Yposition Zposition Zrotation Yrotation Xrotation 
	JOINT Spine
	{
		OFFSET 0.000000 8.814246 -2.080107
		CHANNELS 3 Zrotation Yrotation Xrotation
		JOINT Spine1
		{
			OFFSET 0.000000 8.844141 -0.000000
			CHANNELS 3 Zrotation Yrotation Xrotation
			JOINT Spine2
			{
				OFFSET 0.000000 11.682268 0.000000
				CHANNELS 3 Zrotation Yrotation Xrotation
				JOINT Spine3
				{
					OFFSET 0.000000 11.746700 0.000000
					CHANNELS 3 Zrotation Yrotation Xrotation
					JOINT Neck
					{
						OFFSET -0.000000 17.658264 -0.000000
						CHANNELS 3 Zrotation Yrotation Xrotation
						JOINT Neck1
						{
							OFFSET 0.000000 5.101515 -0.000000
							CHANNELS 3 Zrotation Yrotation Xrotation
							JOINT Head
							{
								OFFSET 0.000000 5.101515 0.000000
								CHANNELS 3 Zrotation Yrotation Xrotation
								JOINT HeadEnd
								{
									OFFSET -0.000000 11.655085 0.000000
									CHANNELS 3 Zrotation Yrotation Xrotation
									End Site
									{
										OFFSET 0.000000 0.000000 0.000000
									}
								}
							}
						}
					}
					JOINT RightShoulder
					{
						OFFSET -2.625389 11.175210 -0.000000
						CHANNELS 3 Zrotation Yrotation Xrotation
						JOINT RightArm
						{
							OFFSET -0.000000 10.434715 -0.000000
							CHANNELS 3 Zrotation Yrotation Xrotation
							JOINT RightForeArm
							{
								OFFSET -0.000000 29.628420 -0.000000
								CHANNELS 3 Zrotation Yrotation Xrotation
								JOINT RightHand
								{
									OFFSET -0.000000 22.857611 -0.000000
									CHANNELS 3 Zrotation Yrotation Xrotation
									JOINT RightHandThumb1
									{
										OFFSET -2.867323 3.959563 2.944291
										CHANNELS 3 Zrotation Yrotation Xrotation
										JOINT RightHandThumb2
										{
											OFFSET -0.000000 3.350399 0.000000
											CHANNELS 3 Zrotation Yrotation Xrotation
											JOINT RightHandThumb3
											{
												OFFSET 0.000000 3.756509 -0.000000
												CHANNELS 3 Zrotation Yrotation Xrotation
												JOINT RightHandThumb4
												{
													OFFSET 0.000000 3.147345 -0.000000
													CHANNELS 3 Zrotation Yrotation Xrotation
													End Site
													{
														OFFSET 0.000000 0.000000 0.000000
													}
												}
											}
										}
									}
									JOINT RightHandIndex1
									{
										OFFSET -0.086752 10.030893 2.345280
										CHANNELS 3 Zrotation Yrotation Xrotation
										JOINT RightHandIndex2
										{
											OFFSET -0.000000 4.061090 -0.000000
											CHANNELS 3 Zrotation Yrotation Xrotation
											JOINT RightHandIndex3
											{
												OFFSET 0.000000 3.248873 0.000000
												CHANNELS 3 Zrotation Yrotation Xrotation
												JOINT RightHandIndex4
												{
													OFFSET 0.000000 2.639709 -0.000000
													CHANNELS 3 Zrotation Yrotation Xrotation
													End Site
													{
														OFFSET 0.000000 0.000000 0.000000
													}
												}
											}
										}
									}
									JOINT RightHandMiddle1
									{
										OFFSET 0.104102 9.502952 0.006768
										CHANNELS 3 Zrotation Yrotation Xrotation
										JOINT RightHandMiddle2
										{
											OFFSET 0.000000 4.568727 0.000000
											CHANNELS 3 Zrotation Yrotation Xrotation
											JOINT RightHandMiddle3
											{
												OFFSET 0.000000 3.654981 -0.000000
												CHANNELS 3 Zrotation Yrotation Xrotation
												JOINT RightHandMiddle4
												{
													OFFSET -0.000000 2.741236 -0.000000
													CHANNELS 3 Zrotation Yrotation Xrotation
													End Site
													{
														OFFSET 0.000000 0.000000 0.000000
													}
												}
											}
										}
									}
									JOINT RightHandRing1
									{
										OFFSET 0.086752 8.921708 -2.267442
										CHANNELS 3 Zrotation Yrotation Xrotation
										JOINT RightHandRing2
										{
											OFFSET -0.000000 4.061090 0.000000
											CHANNELS 3 Zrotation Yrotation Xrotation
											JOINT RightHandRing3
											{
												OFFSET -0.000000 3.654981 -0.000000
												CHANNELS 3 Zrotation Yrotation Xrotation
												JOINT RightHandRing4
												{
													OFFSET -0.000000 2.741236 -0.000000
													CHANNELS 3 Zrotation Yrotation Xrotation
													End Site
													{
														OFFSET 0.000000 0.000000 0.000000
													}
												}
											}
										}
									}
									JOINT RightHandPinky1
									{
										OFFSET -0.173504 7.976997 -4.467199
										CHANNELS 3 Zrotation Yrotation Xrotation
										JOINT RightHandPinky2
										{
											OFFSET -0.000000 3.350399 -0.000000
											CHANNELS 3 Zrotation Yrotation Xrotation
											JOINT RightHandPinky3
											{
												OFFSET -0.000000 2.842763 -0.000000
												CHANNELS 3 Zrotation Yrotation Xrotation
												JOINT RightHandPinky4
												{
													OFFSET 0.000000 2.639709 0.000000
													CHANNELS 3 Zrotation Yrotation Xrotation
													End Site
													{
														OFFSET 0.000000 0.000000 0.000000
													}
												}
											}
										}
									}
									JOINT RightForeArmEnd
									{
										OFFSET 0.000000 0.000000 0.000000
										CHANNELS 3 Zrotation Yrotation Xrotation
										End Site
										{
											OFFSET 0.000000 0.000000 0.000000
										}
									}
								}
								JOINT RightArmEnd
								{
									OFFSET 0.000000 0.000000 0.000000
									CHANNELS 3 Zrotation Yrotation Xrotation
									End Site
									{
										OFFSET 0.000000 0.000000 0.000000
									}
								}
							}
						}
					}
					JOINT LeftShoulder
					{
						OFFSET 2.625389 11.175210 -0.000000
						CHANNELS 3 Zrotation Yrotation Xrotation
						JOINT LeftArm
						{
							OFFSET 0.000000 10.813635 0.000000
							CHANNELS 3 Zrotation Yrotation Xrotation
							JOINT LeftForeArm
							{
								OFFSET 0.000000 28.724781 -0.000000
								CHANNELS 3 Zrotation Yrotation Xrotation
								JOINT LeftHand
								{
									OFFSET 0.644384 25.716167 -0.328871
									CHANNELS 3 Zrotation Yrotation Xrotation
									JOINT LeftHandThumb1
									{
										OFFSET 2.867323 3.959563 2.944291
										CHANNELS 3 Zrotation Yrotation Xrotation
										JOINT LeftHandThumb2
										{
											OFFSET -0.000000 3.350399 -0.000000
											CHANNELS 3 Zrotation Yrotation Xrotation
											JOINT LeftHandThumb3
											{
												OFFSET -0.000000 3.756509 0.000000
												CHANNELS 3 Zrotation Yrotation Xrotation
												JOINT LeftHandThumb4
												{
													OFFSET 0.000000 3.100000 -0.000000
													CHANNELS 3 Zrotation Yrotation Xrotation
													End Site
													{
														OFFSET 0.000000 0.000000 0.000000
													}
												}
											}
										}
									}
									JOINT LeftHandIndex1
									{
										OFFSET 0.086752 10.030893 2.345280
										CHANNELS 3 Zrotation Yrotation Xrotation
										JOINT LeftHandIndex2
										{
											OFFSET 0.000000 4.061090 -0.000000
											CHANNELS 3 Zrotation Yrotation Xrotation
											JOINT LeftHandIndex3
											{
												OFFSET 0.000000 3.248873 -0.000000
												CHANNELS 3 Zrotation Yrotation Xrotation
												JOINT LeftHandIndex4
												{
													OFFSET -0.000000 2.639709 0.000000
													CHANNELS 3 Zrotation Yrotation Xrotation
													End Site
													{
														OFFSET 0.000000 0.000000 0.000000
													}
												}
											}
										}
									}
									JOINT LeftHandMiddle1
									{
										OFFSET -0.104102 9.502952 0.006768
										CHANNELS 3 Zrotation Yrotation Xrotation
										JOINT LeftHandMiddle2
										{
											OFFSET 0.000000 4.568727 -0.000000
											CHANNELS 3 Zrotation Yrotation Xrotation
											JOINT LeftHandMiddle3
											{
												OFFSET 0.000000 3.654981 -0.000000
												CHANNELS 3 Zrotation Yrotation Xrotation
												JOINT LeftHandMiddle4
												{
													OFFSET -0.000000 2.741236 0.000000
													CHANNELS 3 Zrotation Yrotation Xrotation
													End Site
													{
														OFFSET 0.000000 0.000000 0.000000
													}
												}
											}
										}
									}
									JOINT LeftHandRing1
									{
										OFFSET -0.086752 8.921708 -2.267442
										CHANNELS 3 Zrotation Yrotation Xrotation
										JOINT LeftHandRing2
										{
											OFFSET 0.000000 4.061090 -0.000000
											CHANNELS 3 Zrotation Yrotation Xrotation
											JOINT LeftHandRing3
											{
												OFFSET 0.000000 3.654981 -0.000000
												CHANNELS 3 Zrotation Yrotation Xrotation
												JOINT LeftHandRing4
												{
													OFFSET 0.000000 2.741236 0.000000
													CHANNELS 3 Zrotation Yrotation Xrotation
													End Site
													{
														OFFSET 0.000000 0.000000 0.000000
													}
												}
											}
										}
									}
									JOINT LeftHandPinky1
									{
										OFFSET 0.173504 7.976997 -4.467199
										CHANNELS 3 Zrotation Yrotation Xrotation
										JOINT LeftHandPinky2
										{
											OFFSET 0.000000 3.350399 -0.000000
											CHANNELS 3 Zrotation Yrotation Xrotation
											JOINT LeftHandPinky3
											{
												OFFSET -0.000000 2.842763 0.000000
												CHANNELS 3 Zrotation Yrotation Xrotation
												JOINT LeftHandPinky4
												{
													OFFSET 0.000000 2.639709 -0.000000
													CHANNELS 3 Zrotation Yrotation Xrotation
													End Site
													{
														OFFSET 0.000000 0.000000 0.000000
													}
												}
											}
										}
									}
									JOINT LeftForeArmEnd
									{
										OFFSET 0.000000 0.000000 0.000000
										CHANNELS 3 Zrotation Yrotation Xrotation
										End Site
										{
											OFFSET 0.000000 0.000000 0.000000
										}
									}
								}
								JOINT LeftArmEnd
								{
									OFFSET 0.000000 0.000000 0.000000
									CHANNELS 3 Zrotation Yrotation Xrotation
									End Site
									{
										OFFSET 0.000000 0.000000 0.000000
									}
								}
							}
						}
					}
				}
			}
		}
	}
	JOINT RightUpLeg
	{
		OFFSET -11.289943 -0.000000 0.000000
		CHANNELS 3 Zrotation Yrotation Xrotation
		JOINT RightLeg
		{
			OFFSET -0.000000 -38.200325 -0.000000
			CHANNELS 3 Zrotation Yrotation Xrotation
			JOINT RightFoot
			{
				OFFSET -0.000000 -39.900856 0.000000
				CHANNELS 3 Zrotation Yrotation Xrotation
				JOINT RightToeBase
				{
					OFFSET 0.000000 0.000000 15.261641
					CHANNELS 3 Zrotation Yrotation Xrotation
					JOINT RightToeBaseEnd
					{
						OFFSET 0.000000 -0.000000 7.370709
						CHANNELS 3 Zrotation Yrotation Xrotation
						End Site
						{
							OFFSET 0.000000 0.000000 0.000000
						}
					}
				}
				JOINT RightLegEnd
				{
					OFFSET 0.000000 0.000000 0.000000
					CHANNELS 3 Zrotation Yrotation Xrotation
					End Site
					{
						OFFSET 0.000000 0.000000 0.000000
					}
				}
			}
			JOINT RightUpLegEnd
			{
				OFFSET 0.000000 0.000000 0.000000
				CHANNELS 3 Zrotation Yrotation Xrotation
				End Site
				{
					OFFSET 0.000000 0.000000 0.000000
				}
			}
		}
	}
	JOINT LeftUpLeg
	{
		OFFSET 11.315661 0.000000 -0.000000
		CHANNELS 3 Zrotation Yrotation Xrotation
		JOINT LeftLeg
		{
			OFFSET -0.000000 -38.200325 0.000000
			CHANNELS 3 Zrotation Yrotation Xrotation
			JOINT LeftFoot
			{
				OFFSET -0.000000 -39.900856 0.000000
				CHANNELS 3 Zrotation Yrotation Xrotation
				JOINT LeftToeBase
				{
					OFFSET -0.000000 0.000000 15.261641
					CHANNELS 3 Zrotation Yrotation Xrotation
					JOINT LeftToeBaseEnd
					{
						OFFSET -0.000000 0.000000 7.539996
						CHANNELS 3 Zrotation Yrotation Xrotation
						End Site
						{
							OFFSET 0.000000 0.000000 0.000000
						}
					}
				}
				JOINT LeftLegEnd
				{
					OFFSET 0.000000 0.000000 0.000000
					CHANNELS 3 Zrotation Yrotation Xrotation
					End Site
					{
						OFFSET 0.000000 0.000000 0.000000
					}
				}
			}
			JOINT LeftUpLegEnd
			{
				OFFSET 0.000000 0.000000 0.000000
				CHANNELS 3 Zrotation Yrotation Xrotation
				End Site
				{
					OFFSET 0.000000 0.000000 0.000000
				}
			}
		}
	}
}
MOTION
Frames: 4
Frame Time: 0.016667
0.593898 85.582748 6.531530 -0.955793 -4.543979 -14.048262 -0.580339 0.246030 9.064578 5.992140 -1.578399 -2.532899 -4.234493 0.813267 17.257097 0.978919 -0.767415 -1.507346 7.178226 1.988416 12.148076 -3.109116 1.490215 -6.617163 -0.300656 3.496578 -25.493515 0.000000 0.000000 0.000000 98.630966 -1.048670 4.133900 57.564121 -44.378017 5.881572 1.400534 16.707293 32.334377 4.873661 18.156555 -10.538025 9.515615 -1.753697 40.252262 -0.000009 0.000050 -23.231098 0.000007 0.000070 -16.071747 0.000013 0.000001 -0.000050 10.772477 0.214013 -8.862871 7.475768 -0.058398 0.073389 7.435068 -0.026465 0.006471 -0.000008 0.000027 -0.000038 11.449718 0.066328 -11.085984 7.955678 -0.036315 0.023517 7.937681 -0.007904 0.021968 0.000002 0.000018 -0.000007 13.187408 -0.129532 -12.539020 9.437250 0.069108 -0.007531 9.322869 0.010948 -0.014289 -0.000018 -0.000002 0.000011 14.757659 -0.380767 -15.542672 10.317576 0.136533 0.054710 10.314858 0.003655 0.018403 -0.000322 -0.000010 -0.000003 0.000000 0.000000 0.000000 0.000000 0.000000 0.000000 -94.703979 0.714486 4.428377 -57.252430 45.349998 1.191559 -1.828811 -8.143076 49.510017 -4.707891 -18.943939 -17.396868 -8.859245 1.666969 40.526798 0.000007 0.000056 -21.791904 -0.000034 -0.000032 -14.929387 -0.000176 -0.000002 -0.001085 -13.574481 0.231557 -13.474887 -8.698261 -0.032502 0.111859 -8.718866 0.006067 0.084577 -0.000001 0.000598 -0.000016 -14.175517 0.104916 -14.784034 -9.343339 -0.028733 0.031085 -9.150766 0.001492 0.029784 -0.001978 -0.000072 -0.000251 -15.712766 -0.060833 -13.859707 -10.583751 0.064684 -0.062626 -10.581648 0.001234 -0.054191 0.000361 0.000013 0.000006 -16.324329 -0.307220 -13.679037 -11.265498 0.093368 -0.185355 -11.145782 -0.017496 -0.155601 -0.000873 0.000008 -0.000057 0.000000 0.000000 0.000000 0.000000 0.000000 0.000000 -3.494087 -3.509603 18.154097 -0.217899 -0.984749 10.203813 -0.626726 -10.307290 14.720213 -0.534310 -0.723630 -27.791582 0.000000 0.000000 0.000000 0.000000 0.000000 0.000000 0.000000 0.000000 0.000000 8.832142 7.123791 16.913172 0.225126 1.073253 13.429695 -1.411892 6.191571 11.737089 0.424064 0.238348 -27.319948 0.000000 0.000000 0.000000 0.000000 0.000000 0.000000 0.000000 0.000000 0.000000 
0.593012 85.581139 6.522281 -0.958153 -4.536180 -14.048631 -0.578439 0.245844 9.068439 5.982128 -1.577334 -2.558693 -4.218839 0.807441 17.297876 0.976251 -0.768659 -1.509087 7.188239 1.984022 12.122197 -3.108430 1.486745 -6.637419 -0.299361 3.497994 -25.487955 0.000000 0.000000 0.000000 98.632278 -1.049538 4.135451 57.558002 -44.377388 5.902999 1.398173 16.705160 32.344456 4.868727 18.135378 -10.532386 9.517010 -1.753766 40.251762 -0.000009 0.000050 -23.235582 0.000007 0.000070 -16.075197 0.000013 0.000001 -0.000050 10.769239 0.214317 -8.872049 7.478139 -0.058214 0.072403 7.438056 -0.026244 0.005825 -0.000008 0.000027 -0.000038 11.449946 0.066422 -11.091764 7.960257 -0.036248 0.023296 7.941837 -0.007892 0.021847 0.000002 0.000019 -0.000007 13.194382 -0.129738 -12.537004 9.445478 0.069069 -0.007317 9.330411 0.010902 -0.014196 -0.000018 0.000001 0.000011 14.764312 -0.381583 -15.538966 10.325150 0.136282 0.055424 10.321796 0.003353 0.018841 -0.000319 -0.000010 -0.000003 0.000000 0.000000 0.000000 0.000000 0.000000 0.000000 -94.704552 0.715372 4.434532 -57.254665 45.365803 1.185851 -1.828173 -8.154540 49.515259 -4.678116 -18.954573 -17.411858 -8.856964 1.666397 40.527924 0.000008 0.000056 -21.788208 -0.000035 -0.000032 -14.927397 -0.000160 -0.000002 -0.001081 -13.569475 0.231704 -13.489307 -8.701095 -0.032656 0.111250 -8.721383 0.005984 0.084119 -0.000001 0.000609 -0.000016 -14.173175 0.104985 -14.794782 -9.344143 -0.028790 0.030749 -9.152517 0.001433 0.029470 -0.001978 -0.000072 -0.000251 -15.712682 -0.060998 -13.863747 -10.581729 0.064902 -0.061893 -10.579170 0.001351 -0.053695 0.000377 0.000013 0.000006 -16.330683 -0.308245 -13.679163 -11.262988 0.093854 -0.182756 -11.144338 -0.017142 -0.153730 -0.000875 0.000008 -0.000057 0.000000 0.000000 0.000000 0.000000 0.000000 0.000000 -3.488186 -3.500703 18.158382 -0.217813 -0.984666 10.190022 -0.628693 -10.301966 14.728155 -0.535075 -0.723999 -27.795866 0.000000 0.000000 0.000000 0.000000 0.000000 0.000000 0.000000 0.000000 0.000000 8.836068 7.124341 16.914438 0.225363 1.073517 13.436786 -1.406353 6.171760 11.737770 0.422190 0.239268 -27.328535 0.000000 0.000000 0.000000 0.000000 0.000000 0.000000 0.000000 0.000000 0.000000 
0.592107 85.579636 6.512773 -0.960963 -4.526502 -14.049110 -0.575876 0.245675 9.072111 5.972116 -1.576117 -2.583395 -4.203224 0.802276 17.338923 0.973374 -0.769598 -1.509663 7.198953 1.978506 12.096262 -3.107780 1.482199 -6.657804 -0.297657 3.499274 -25.482307 0.000000 0.000000 0.000000 98.631599 -1.050259 4.138175 57.552811 -44.376854 5.926332 1.395850 16.704731 32.354008 4.861841 18.114410 -10.528699 9.518374 -1.753815 40.251274 -0.000009 0.000050 -23.239948 0.000007 0.000071 -16.078630 0.000013 0.000001 -0.000050 10.764964 0.214613 -8.880185 7.480044 -0.058046 0.071588 7.440525 -0.026053 0.005334 -0.000008 0.000027 -0.000038 11.449244 0.066518 -11.096713 7.964254 -0.036186 0.023121 7.945366 -0.007882 0.021763 0.000002 0.000020 -0.000007 13.201530 -0.129936 -12.534272 9.453053 0.069026 -0.007147 9.337303 0.010854 -0.014128 -0.000018 0.000005 0.000011 14.771999 -0.382401 -15.534520 10.332294 0.135986 0.056146 10.328234 0.003010 0.019268 -0.000315 -0.000010 -0.000003 0.000000 0.000000 0.000000 0.000000 0.000000 0.000000 -94.703873 0.716281 4.440908 -57.254169 45.382301 1.184381 -1.827528 -8.165842 49.518272 -4.644826 -18.965481 -17.428261 -8.854207 1.665785 40.529251 0.000008 0.000056 -21.783590 -0.000036 -0.000032 -14.924684 -0.000144 -0.000002 -0.001080 -13.562567 0.231833 -13.503589 -8.702971 -0.032799 0.110607 -8.723117 0.005905 0.083600 -0.000001 0.000621 -0.000016 -14.168730 0.105041 -14.804947 -9.343839 -0.028846 0.030400 -9.153228 0.001376 0.029141 -0.001979 -0.000071 -0.000250 -15.710383 -0.061153 -13.867111 -10.578339 0.065109 -0.061163 -10.575212 0.001463 -0.053203 0.000391 0.000013 0.000006 -16.334883 -0.309273 -13.678545 -11.258889 0.094303 -0.180275 -11.141429 -0.016813 -0.151898 -0.000877 0.000008 -0.000057 0.000000 0.000000 0.000000 0.000000 0.000000 0.000000 -3.481770 -3.492475 18.162489 -0.217704 -0.984574 10.176520 -0.630522 -10.296851 14.735847 -0.535776 -0.724231 -27.800119 0.000000 0.000000 0.000000 0.000000 0.000000 0.000000 0.000000 0.000000 0.000000 8.840347 7.123708 16.915421 0.225635 1.073877 13.444106 -1.400813 6.150961 11.738303 0.420515 0.240106 -27.337391 0.000000 0.000000 0.000000 0.000000 0.000000 0.000000 0.000000 0.000000 0.000000 
0.591086 85.578262 6.503086 -0.964223 -4.515026 -14.049765 -0.572599 0.245550 9.075588 5.962285 -1.574712 -2.606841 -4.187907 0.798019 17.379763 0.970056 -0.770142 -1.509155 7.209722 1.972078 12.070612 -3.107235 1.476536 -6.678055 -0.295570 3.500334 -25.476633 0.000000 0.000000 0.000000 98.628914 -1.050844 4.142101 57.548923 -44.377300 5.951184 1.393661 16.705458 32.362648 4.852641 18.095100 -10.527426 9.519553 -1.753828 40.250889 -0.000009 0.000050 -23.243826 0.000007 0.000071 -16.081760 0.000013 0.000001 -0.000050 10.759028 0.214907 -8.887450 7.481348 -0.057895 0.070944 7.442308 -0.025890 0.004994 -0.000008 0.000027 -0.000038 11.446957 0.066618 -11.100944 7.967475 -0.036130 0.022996 7.948092 -0.007875 0.021719 0.000002 0.000021 -0.000007 13.208059 -0.130133 -12.531089 9.459741 0.068979 -0.007034 9.343339 0.010803 -0.014092 -0.000017 0.000008 0.000011 14.779996 -0.383222 -15.529457 10.338745 0.135644 0.056816 10.333933 0.002633 0.019638 -0.000312 -0.000010 -0.000003 0.000000 0.000000 0.000000 0.000000 0.000000 0.000000 -94.702087 0.717146 4.447194 -57.250546 45.398979 1.187185 -1.826808 -8.176822 49.519844 -4.609216 -18.978201 -17.445415 -8.850973 1.665134 40.530785 0.000008 0.000056 -21.778036 -0.000036 -0.000032 -14.921236 -0.000128 -0.000002 -0.001081 -13.553803 0.231958 -13.517742 -8.703951 -0.032931 0.109917 -8.724163 0.005832 0.083009 -0.000001 0.000633 -0.000016 -14.162176 0.105089 -14.814521 -9.342565 -0.028901 0.030029 -9.153027 0.001320 0.028796 -0.001979 -0.000071 -0.000249 -15.705959 -0.061304 -13.869824 -10.573825 0.065304 -0.060422 -10.570034 0.001571 -0.052706 0.000405 0.000013 0.000006 -16.337210 -0.310319 -13.677110 -11.253564 0.094712 -0.177882 -11.137438 -0.016512 -0.150080 -0.000878 0.000008 -0.000057 0.000000 0.000000 0.000000 0.000000 0.000000 0.000000 -3.475156 -3.485293 18.166782 -0.217572 -0.984476 10.162956 -0.631994 -10.292072 14.743134 -0.536433 -0.724335 -27.804224 0.000000 0.000000 0.000000 0.000000 0.000000 0.000000 0.000000 0.000000 0.000000 8.844945 7.121826 16.916172 0.225932 1.074329 13.451461 -1.395266 6.129273 11.738632 0.419067 0.240873 -27.346342 0.000000 0.000000 0.000000 0.000000 0.000000 0.000000 0.000000 0.000000 0.000000 
